<mxfile host="Electron" modified="2024-01-23T05:40:55.232Z" agent="Mozilla/5.0 (Macintosh; Intel Mac OS X 10_15_7) AppleWebKit/537.36 (KHTML, like Gecko) draw.io/22.1.21 Chrome/120.0.6099.109 Electron/28.1.0 Safari/537.36" etag="wwEECel11DOfyPeSSUVX" version="22.1.21" type="device" pages="7">
  <diagram name="第 1 页" id="7RT-A2x196tDRc7NvJxO">
    <mxGraphModel dx="690" dy="669" grid="1" gridSize="10" guides="1" tooltips="1" connect="1" arrows="1" fold="1" page="1" pageScale="1" pageWidth="827" pageHeight="1169" math="0" shadow="0">
      <root>
        <mxCell id="0" />
        <mxCell id="1" parent="0" />
        <mxCell id="qVjcu_orwlr8iD31ImXi-3" style="edgeStyle=orthogonalEdgeStyle;rounded=0;orthogonalLoop=1;jettySize=auto;html=1;exitX=0.5;exitY=0;exitDx=0;exitDy=0;" edge="1" parent="1" source="qVjcu_orwlr8iD31ImXi-1">
          <mxGeometry relative="1" as="geometry">
            <mxPoint x="375" y="240" as="targetPoint" />
          </mxGeometry>
        </mxCell>
        <mxCell id="qVjcu_orwlr8iD31ImXi-1" value="" style="ellipse;whiteSpace=wrap;html=1;aspect=fixed;" vertex="1" parent="1">
          <mxGeometry x="310" y="280" width="130" height="130" as="geometry" />
        </mxCell>
        <mxCell id="qVjcu_orwlr8iD31ImXi-2" value="环形 Hash 空间" style="text;html=1;strokeColor=none;fillColor=none;align=center;verticalAlign=middle;whiteSpace=wrap;rounded=0;" vertex="1" parent="1">
          <mxGeometry x="330" y="330" width="90" height="30" as="geometry" />
        </mxCell>
        <mxCell id="qVjcu_orwlr8iD31ImXi-5" value="0" style="text;html=1;strokeColor=none;fillColor=none;align=center;verticalAlign=middle;whiteSpace=wrap;rounded=0;" vertex="1" parent="1">
          <mxGeometry x="345" y="210" width="60" height="30" as="geometry" />
        </mxCell>
        <mxCell id="qVjcu_orwlr8iD31ImXi-6" value="2^32 - 1" style="text;html=1;strokeColor=none;fillColor=none;align=center;verticalAlign=middle;whiteSpace=wrap;rounded=0;" vertex="1" parent="1">
          <mxGeometry x="390" y="220" width="60" height="30" as="geometry" />
        </mxCell>
        <mxCell id="qVjcu_orwlr8iD31ImXi-7" value="" style="endArrow=classic;html=1;rounded=0;exitX=0.692;exitY=0.038;exitDx=0;exitDy=0;exitPerimeter=0;" edge="1" parent="1" source="qVjcu_orwlr8iD31ImXi-1">
          <mxGeometry width="50" height="50" relative="1" as="geometry">
            <mxPoint x="330" y="370" as="sourcePoint" />
            <mxPoint x="420" y="250" as="targetPoint" />
          </mxGeometry>
        </mxCell>
        <mxCell id="qVjcu_orwlr8iD31ImXi-25" style="edgeStyle=orthogonalEdgeStyle;rounded=0;orthogonalLoop=1;jettySize=auto;html=1;exitX=0;exitY=0.5;exitDx=0;exitDy=0;entryX=0;entryY=0.5;entryDx=0;entryDy=0;curved=1;dashed=1;endArrow=classicThin;endFill=1;" edge="1" parent="1" source="qVjcu_orwlr8iD31ImXi-9" target="qVjcu_orwlr8iD31ImXi-13">
          <mxGeometry relative="1" as="geometry" />
        </mxCell>
        <mxCell id="qVjcu_orwlr8iD31ImXi-9" value="F1" style="ellipse;whiteSpace=wrap;html=1;fillColor=#d5e8d4;strokeColor=#82b366;" vertex="1" parent="1">
          <mxGeometry x="410" y="290" width="30" height="20" as="geometry" />
        </mxCell>
        <mxCell id="qVjcu_orwlr8iD31ImXi-26" style="edgeStyle=orthogonalEdgeStyle;rounded=0;orthogonalLoop=1;jettySize=auto;html=1;exitX=0;exitY=0;exitDx=0;exitDy=0;entryX=0.5;entryY=0;entryDx=0;entryDy=0;dashed=1;curved=1;endArrow=classicThin;endFill=1;" edge="1" parent="1" source="qVjcu_orwlr8iD31ImXi-10" target="qVjcu_orwlr8iD31ImXi-14">
          <mxGeometry relative="1" as="geometry" />
        </mxCell>
        <mxCell id="qVjcu_orwlr8iD31ImXi-10" value="F2" style="ellipse;whiteSpace=wrap;html=1;fillColor=#d5e8d4;strokeColor=#82b366;" vertex="1" parent="1">
          <mxGeometry x="420" y="370" width="30" height="20" as="geometry" />
        </mxCell>
        <mxCell id="qVjcu_orwlr8iD31ImXi-24" style="edgeStyle=orthogonalEdgeStyle;rounded=0;orthogonalLoop=1;jettySize=auto;html=1;exitX=0.5;exitY=0;exitDx=0;exitDy=0;entryX=1;entryY=1;entryDx=0;entryDy=0;dashed=1;curved=1;endArrow=classicThin;endFill=1;" edge="1" parent="1" source="qVjcu_orwlr8iD31ImXi-11" target="qVjcu_orwlr8iD31ImXi-15">
          <mxGeometry relative="1" as="geometry" />
        </mxCell>
        <mxCell id="qVjcu_orwlr8iD31ImXi-11" value="F3" style="ellipse;whiteSpace=wrap;html=1;fillColor=#d5e8d4;strokeColor=#82b366;" vertex="1" parent="1">
          <mxGeometry x="310" y="380" width="30" height="20" as="geometry" />
        </mxCell>
        <mxCell id="qVjcu_orwlr8iD31ImXi-23" style="edgeStyle=orthogonalEdgeStyle;rounded=0;orthogonalLoop=1;jettySize=auto;html=1;exitX=1;exitY=0.5;exitDx=0;exitDy=0;entryX=0.5;entryY=1;entryDx=0;entryDy=0;curved=1;dashed=1;endArrow=classicThin;endFill=1;" edge="1" parent="1" source="qVjcu_orwlr8iD31ImXi-12" target="qVjcu_orwlr8iD31ImXi-15">
          <mxGeometry relative="1" as="geometry" />
        </mxCell>
        <mxCell id="qVjcu_orwlr8iD31ImXi-12" value="F4" style="ellipse;whiteSpace=wrap;html=1;fillColor=#d5e8d4;strokeColor=#82b366;" vertex="1" parent="1">
          <mxGeometry x="300" y="300" width="30" height="20" as="geometry" />
        </mxCell>
        <mxCell id="qVjcu_orwlr8iD31ImXi-13" value="C1" style="ellipse;whiteSpace=wrap;html=1;fillColor=#ffe6cc;strokeColor=#d79b00;" vertex="1" parent="1">
          <mxGeometry x="430" y="330" width="30" height="20" as="geometry" />
        </mxCell>
        <mxCell id="qVjcu_orwlr8iD31ImXi-14" value="C2" style="ellipse;whiteSpace=wrap;html=1;fillColor=#ffe6cc;strokeColor=#d79b00;" vertex="1" parent="1">
          <mxGeometry x="360" y="400" width="30" height="20" as="geometry" />
        </mxCell>
        <mxCell id="qVjcu_orwlr8iD31ImXi-15" value="C3" style="ellipse;whiteSpace=wrap;html=1;fillColor=#ffe6cc;strokeColor=#d79b00;" vertex="1" parent="1">
          <mxGeometry x="340" y="270" width="30" height="20" as="geometry" />
        </mxCell>
      </root>
    </mxGraphModel>
  </diagram>
  <diagram id="5KVMffLRVkKbKDs6k12g" name="第 2 页">
    <mxGraphModel dx="690" dy="669" grid="1" gridSize="10" guides="1" tooltips="1" connect="1" arrows="1" fold="1" page="1" pageScale="1" pageWidth="827" pageHeight="1169" math="0" shadow="0">
      <root>
        <mxCell id="0" />
        <mxCell id="1" parent="0" />
        <mxCell id="YKao_FRafX6baycP1nrq-1" style="edgeStyle=orthogonalEdgeStyle;rounded=0;orthogonalLoop=1;jettySize=auto;html=1;exitX=0.5;exitY=0;exitDx=0;exitDy=0;" edge="1" parent="1" source="YKao_FRafX6baycP1nrq-2">
          <mxGeometry relative="1" as="geometry">
            <mxPoint x="375" y="240" as="targetPoint" />
          </mxGeometry>
        </mxCell>
        <mxCell id="YKao_FRafX6baycP1nrq-2" value="" style="ellipse;whiteSpace=wrap;html=1;aspect=fixed;" vertex="1" parent="1">
          <mxGeometry x="310" y="280" width="130" height="130" as="geometry" />
        </mxCell>
        <mxCell id="YKao_FRafX6baycP1nrq-3" value="环形 Hash 空间" style="text;html=1;strokeColor=none;fillColor=none;align=center;verticalAlign=middle;whiteSpace=wrap;rounded=0;" vertex="1" parent="1">
          <mxGeometry x="330" y="330" width="90" height="30" as="geometry" />
        </mxCell>
        <mxCell id="YKao_FRafX6baycP1nrq-4" value="0" style="text;html=1;strokeColor=none;fillColor=none;align=center;verticalAlign=middle;whiteSpace=wrap;rounded=0;" vertex="1" parent="1">
          <mxGeometry x="345" y="210" width="60" height="30" as="geometry" />
        </mxCell>
        <mxCell id="YKao_FRafX6baycP1nrq-5" value="2^32 - 1" style="text;html=1;strokeColor=none;fillColor=none;align=center;verticalAlign=middle;whiteSpace=wrap;rounded=0;" vertex="1" parent="1">
          <mxGeometry x="390" y="220" width="60" height="30" as="geometry" />
        </mxCell>
        <mxCell id="YKao_FRafX6baycP1nrq-6" value="" style="endArrow=classic;html=1;rounded=0;exitX=0.692;exitY=0.038;exitDx=0;exitDy=0;exitPerimeter=0;" edge="1" parent="1" source="YKao_FRafX6baycP1nrq-2">
          <mxGeometry width="50" height="50" relative="1" as="geometry">
            <mxPoint x="330" y="370" as="sourcePoint" />
            <mxPoint x="420" y="250" as="targetPoint" />
          </mxGeometry>
        </mxCell>
        <mxCell id="YKao_FRafX6baycP1nrq-7" style="edgeStyle=orthogonalEdgeStyle;rounded=0;orthogonalLoop=1;jettySize=auto;html=1;exitX=0;exitY=0.5;exitDx=0;exitDy=0;entryX=0;entryY=0;entryDx=0;entryDy=0;curved=1;dashed=1;endArrow=classicThin;endFill=1;" edge="1" parent="1" source="YKao_FRafX6baycP1nrq-8" target="YKao_FRafX6baycP1nrq-16">
          <mxGeometry relative="1" as="geometry" />
        </mxCell>
        <mxCell id="YKao_FRafX6baycP1nrq-8" value="F1" style="ellipse;whiteSpace=wrap;html=1;fillColor=#d5e8d4;strokeColor=#82b366;" vertex="1" parent="1">
          <mxGeometry x="410" y="290" width="30" height="20" as="geometry" />
        </mxCell>
        <mxCell id="YKao_FRafX6baycP1nrq-9" style="edgeStyle=orthogonalEdgeStyle;rounded=0;orthogonalLoop=1;jettySize=auto;html=1;exitX=0;exitY=0;exitDx=0;exitDy=0;entryX=0.5;entryY=0;entryDx=0;entryDy=0;dashed=1;curved=1;endArrow=classicThin;endFill=1;" edge="1" parent="1" source="YKao_FRafX6baycP1nrq-10" target="YKao_FRafX6baycP1nrq-16">
          <mxGeometry relative="1" as="geometry" />
        </mxCell>
        <mxCell id="YKao_FRafX6baycP1nrq-10" value="F2" style="ellipse;whiteSpace=wrap;html=1;fillColor=#d5e8d4;strokeColor=#82b366;" vertex="1" parent="1">
          <mxGeometry x="420" y="370" width="30" height="20" as="geometry" />
        </mxCell>
        <mxCell id="YKao_FRafX6baycP1nrq-11" style="edgeStyle=orthogonalEdgeStyle;rounded=0;orthogonalLoop=1;jettySize=auto;html=1;exitX=0.5;exitY=0;exitDx=0;exitDy=0;entryX=1;entryY=1;entryDx=0;entryDy=0;dashed=1;curved=1;endArrow=classicThin;endFill=1;" edge="1" parent="1" source="YKao_FRafX6baycP1nrq-12" target="YKao_FRafX6baycP1nrq-17">
          <mxGeometry relative="1" as="geometry" />
        </mxCell>
        <mxCell id="YKao_FRafX6baycP1nrq-12" value="F3" style="ellipse;whiteSpace=wrap;html=1;fillColor=#d5e8d4;strokeColor=#82b366;" vertex="1" parent="1">
          <mxGeometry x="310" y="380" width="30" height="20" as="geometry" />
        </mxCell>
        <mxCell id="YKao_FRafX6baycP1nrq-13" style="edgeStyle=orthogonalEdgeStyle;rounded=0;orthogonalLoop=1;jettySize=auto;html=1;exitX=1;exitY=0.5;exitDx=0;exitDy=0;entryX=0.5;entryY=1;entryDx=0;entryDy=0;curved=1;dashed=1;endArrow=classicThin;endFill=1;" edge="1" parent="1" source="YKao_FRafX6baycP1nrq-14" target="YKao_FRafX6baycP1nrq-17">
          <mxGeometry relative="1" as="geometry" />
        </mxCell>
        <mxCell id="YKao_FRafX6baycP1nrq-14" value="F4" style="ellipse;whiteSpace=wrap;html=1;fillColor=#d5e8d4;strokeColor=#82b366;" vertex="1" parent="1">
          <mxGeometry x="300" y="300" width="30" height="20" as="geometry" />
        </mxCell>
        <mxCell id="YKao_FRafX6baycP1nrq-15" value="C1" style="ellipse;whiteSpace=wrap;html=1;fillColor=#f5f5f5;strokeColor=#666666;fontColor=#333333;" vertex="1" parent="1">
          <mxGeometry x="430" y="330" width="30" height="20" as="geometry" />
        </mxCell>
        <mxCell id="YKao_FRafX6baycP1nrq-16" value="C2" style="ellipse;whiteSpace=wrap;html=1;fillColor=#ffe6cc;strokeColor=#d79b00;" vertex="1" parent="1">
          <mxGeometry x="360" y="400" width="30" height="20" as="geometry" />
        </mxCell>
        <mxCell id="YKao_FRafX6baycP1nrq-17" value="C3" style="ellipse;whiteSpace=wrap;html=1;fillColor=#ffe6cc;strokeColor=#d79b00;" vertex="1" parent="1">
          <mxGeometry x="340" y="270" width="30" height="20" as="geometry" />
        </mxCell>
        <mxCell id="YKao_FRafX6baycP1nrq-18" value="C1 宕机&lt;br&gt;摘除节点" style="text;html=1;strokeColor=none;fillColor=none;align=center;verticalAlign=middle;whiteSpace=wrap;rounded=0;" vertex="1" parent="1">
          <mxGeometry x="460" y="325" width="60" height="30" as="geometry" />
        </mxCell>
      </root>
    </mxGraphModel>
  </diagram>
  <diagram id="Dj4DrGOzJp7w6wtMYpVx" name="第 3 页">
    <mxGraphModel dx="690" dy="669" grid="1" gridSize="10" guides="1" tooltips="1" connect="1" arrows="1" fold="1" page="1" pageScale="1" pageWidth="827" pageHeight="1169" math="0" shadow="0">
      <root>
        <mxCell id="0" />
        <mxCell id="1" parent="0" />
        <mxCell id="uck6pMvDtRB_QYlou0p2-1" style="edgeStyle=orthogonalEdgeStyle;rounded=0;orthogonalLoop=1;jettySize=auto;html=1;exitX=0.5;exitY=0;exitDx=0;exitDy=0;" edge="1" parent="1" source="uck6pMvDtRB_QYlou0p2-2">
          <mxGeometry relative="1" as="geometry">
            <mxPoint x="375" y="240" as="targetPoint" />
          </mxGeometry>
        </mxCell>
        <mxCell id="uck6pMvDtRB_QYlou0p2-2" value="" style="ellipse;whiteSpace=wrap;html=1;aspect=fixed;" vertex="1" parent="1">
          <mxGeometry x="310" y="280" width="130" height="130" as="geometry" />
        </mxCell>
        <mxCell id="uck6pMvDtRB_QYlou0p2-3" value="环形 Hash 空间" style="text;html=1;strokeColor=none;fillColor=none;align=center;verticalAlign=middle;whiteSpace=wrap;rounded=0;" vertex="1" parent="1">
          <mxGeometry x="330" y="330" width="90" height="30" as="geometry" />
        </mxCell>
        <mxCell id="uck6pMvDtRB_QYlou0p2-4" value="0" style="text;html=1;strokeColor=none;fillColor=none;align=center;verticalAlign=middle;whiteSpace=wrap;rounded=0;" vertex="1" parent="1">
          <mxGeometry x="345" y="210" width="60" height="30" as="geometry" />
        </mxCell>
        <mxCell id="uck6pMvDtRB_QYlou0p2-5" value="2^32 - 1" style="text;html=1;strokeColor=none;fillColor=none;align=center;verticalAlign=middle;whiteSpace=wrap;rounded=0;" vertex="1" parent="1">
          <mxGeometry x="390" y="220" width="60" height="30" as="geometry" />
        </mxCell>
        <mxCell id="uck6pMvDtRB_QYlou0p2-6" value="" style="endArrow=classic;html=1;rounded=0;exitX=0.692;exitY=0.038;exitDx=0;exitDy=0;exitPerimeter=0;" edge="1" parent="1" source="uck6pMvDtRB_QYlou0p2-2">
          <mxGeometry width="50" height="50" relative="1" as="geometry">
            <mxPoint x="330" y="370" as="sourcePoint" />
            <mxPoint x="420" y="250" as="targetPoint" />
          </mxGeometry>
        </mxCell>
        <mxCell id="uck6pMvDtRB_QYlou0p2-7" style="edgeStyle=orthogonalEdgeStyle;rounded=0;orthogonalLoop=1;jettySize=auto;html=1;exitX=0;exitY=0.5;exitDx=0;exitDy=0;entryX=0;entryY=0.5;entryDx=0;entryDy=0;curved=1;dashed=1;endArrow=classicThin;endFill=1;" edge="1" parent="1" source="uck6pMvDtRB_QYlou0p2-8" target="uck6pMvDtRB_QYlou0p2-15">
          <mxGeometry relative="1" as="geometry" />
        </mxCell>
        <mxCell id="uck6pMvDtRB_QYlou0p2-8" value="F1" style="ellipse;whiteSpace=wrap;html=1;fillColor=#d5e8d4;strokeColor=#82b366;" vertex="1" parent="1">
          <mxGeometry x="410" y="290" width="30" height="20" as="geometry" />
        </mxCell>
        <mxCell id="uck6pMvDtRB_QYlou0p2-9" style="edgeStyle=orthogonalEdgeStyle;rounded=0;orthogonalLoop=1;jettySize=auto;html=1;exitX=0;exitY=0;exitDx=0;exitDy=0;entryX=0.5;entryY=0;entryDx=0;entryDy=0;dashed=1;curved=1;endArrow=classicThin;endFill=1;" edge="1" parent="1" source="uck6pMvDtRB_QYlou0p2-10" target="uck6pMvDtRB_QYlou0p2-16">
          <mxGeometry relative="1" as="geometry" />
        </mxCell>
        <mxCell id="uck6pMvDtRB_QYlou0p2-10" value="F2" style="ellipse;whiteSpace=wrap;html=1;fillColor=#d5e8d4;strokeColor=#82b366;" vertex="1" parent="1">
          <mxGeometry x="420" y="370" width="30" height="20" as="geometry" />
        </mxCell>
        <mxCell id="uck6pMvDtRB_QYlou0p2-11" style="edgeStyle=orthogonalEdgeStyle;rounded=0;orthogonalLoop=1;jettySize=auto;html=1;exitX=0.5;exitY=0;exitDx=0;exitDy=0;entryX=1;entryY=0.5;entryDx=0;entryDy=0;dashed=1;curved=1;endArrow=classicThin;endFill=1;" edge="1" parent="1" source="uck6pMvDtRB_QYlou0p2-12" target="uck6pMvDtRB_QYlou0p2-18">
          <mxGeometry relative="1" as="geometry">
            <Array as="points">
              <mxPoint x="350" y="380" />
              <mxPoint x="350" y="350" />
            </Array>
          </mxGeometry>
        </mxCell>
        <mxCell id="uck6pMvDtRB_QYlou0p2-12" value="F3" style="ellipse;whiteSpace=wrap;html=1;fillColor=#d5e8d4;strokeColor=#82b366;" vertex="1" parent="1">
          <mxGeometry x="310" y="380" width="30" height="20" as="geometry" />
        </mxCell>
        <mxCell id="uck6pMvDtRB_QYlou0p2-13" style="edgeStyle=orthogonalEdgeStyle;rounded=0;orthogonalLoop=1;jettySize=auto;html=1;exitX=1;exitY=0.5;exitDx=0;exitDy=0;entryX=0.5;entryY=1;entryDx=0;entryDy=0;curved=1;dashed=1;endArrow=classicThin;endFill=1;" edge="1" parent="1" source="uck6pMvDtRB_QYlou0p2-14" target="uck6pMvDtRB_QYlou0p2-17">
          <mxGeometry relative="1" as="geometry" />
        </mxCell>
        <mxCell id="uck6pMvDtRB_QYlou0p2-14" value="F4" style="ellipse;whiteSpace=wrap;html=1;fillColor=#d5e8d4;strokeColor=#82b366;" vertex="1" parent="1">
          <mxGeometry x="300" y="300" width="30" height="20" as="geometry" />
        </mxCell>
        <mxCell id="uck6pMvDtRB_QYlou0p2-15" value="C1" style="ellipse;whiteSpace=wrap;html=1;fillColor=#ffe6cc;strokeColor=#d79b00;" vertex="1" parent="1">
          <mxGeometry x="430" y="330" width="30" height="20" as="geometry" />
        </mxCell>
        <mxCell id="uck6pMvDtRB_QYlou0p2-16" value="C2" style="ellipse;whiteSpace=wrap;html=1;fillColor=#ffe6cc;strokeColor=#d79b00;" vertex="1" parent="1">
          <mxGeometry x="360" y="400" width="30" height="20" as="geometry" />
        </mxCell>
        <mxCell id="uck6pMvDtRB_QYlou0p2-17" value="C3" style="ellipse;whiteSpace=wrap;html=1;fillColor=#ffe6cc;strokeColor=#d79b00;" vertex="1" parent="1">
          <mxGeometry x="340" y="270" width="30" height="20" as="geometry" />
        </mxCell>
        <mxCell id="uck6pMvDtRB_QYlou0p2-18" value="C4" style="ellipse;whiteSpace=wrap;html=1;fillColor=#ffe6cc;strokeColor=#d79b00;" vertex="1" parent="1">
          <mxGeometry x="290" y="340" width="30" height="20" as="geometry" />
        </mxCell>
      </root>
    </mxGraphModel>
  </diagram>
  <diagram id="DjKMuKKgRcvaukufR7tV" name="第 4 页">
    <mxGraphModel dx="690" dy="669" grid="1" gridSize="10" guides="1" tooltips="1" connect="1" arrows="1" fold="1" page="1" pageScale="1" pageWidth="827" pageHeight="1169" math="0" shadow="0">
      <root>
        <mxCell id="0" />
        <mxCell id="1" parent="0" />
        <mxCell id="7Bt0YS9L6A7gNUwBivGn-1" style="edgeStyle=orthogonalEdgeStyle;rounded=0;orthogonalLoop=1;jettySize=auto;html=1;exitX=0.5;exitY=0;exitDx=0;exitDy=0;" edge="1" parent="1" source="7Bt0YS9L6A7gNUwBivGn-2">
          <mxGeometry relative="1" as="geometry">
            <mxPoint x="375" y="240" as="targetPoint" />
          </mxGeometry>
        </mxCell>
        <mxCell id="7Bt0YS9L6A7gNUwBivGn-2" value="" style="ellipse;whiteSpace=wrap;html=1;aspect=fixed;" vertex="1" parent="1">
          <mxGeometry x="310" y="280" width="130" height="130" as="geometry" />
        </mxCell>
        <mxCell id="7Bt0YS9L6A7gNUwBivGn-3" value="环形 Hash 空间" style="text;html=1;strokeColor=none;fillColor=none;align=center;verticalAlign=middle;whiteSpace=wrap;rounded=0;" vertex="1" parent="1">
          <mxGeometry x="330" y="330" width="90" height="30" as="geometry" />
        </mxCell>
        <mxCell id="7Bt0YS9L6A7gNUwBivGn-4" value="0" style="text;html=1;strokeColor=none;fillColor=none;align=center;verticalAlign=middle;whiteSpace=wrap;rounded=0;" vertex="1" parent="1">
          <mxGeometry x="345" y="210" width="60" height="30" as="geometry" />
        </mxCell>
        <mxCell id="7Bt0YS9L6A7gNUwBivGn-5" value="2^32 - 1" style="text;html=1;strokeColor=none;fillColor=none;align=center;verticalAlign=middle;whiteSpace=wrap;rounded=0;" vertex="1" parent="1">
          <mxGeometry x="390" y="220" width="60" height="30" as="geometry" />
        </mxCell>
        <mxCell id="7Bt0YS9L6A7gNUwBivGn-6" value="" style="endArrow=classic;html=1;rounded=0;exitX=0.692;exitY=0.038;exitDx=0;exitDy=0;exitPerimeter=0;" edge="1" parent="1" source="7Bt0YS9L6A7gNUwBivGn-2">
          <mxGeometry width="50" height="50" relative="1" as="geometry">
            <mxPoint x="330" y="370" as="sourcePoint" />
            <mxPoint x="420" y="250" as="targetPoint" />
          </mxGeometry>
        </mxCell>
        <mxCell id="7Bt0YS9L6A7gNUwBivGn-7" style="edgeStyle=orthogonalEdgeStyle;rounded=0;orthogonalLoop=1;jettySize=auto;html=1;exitX=0;exitY=0.5;exitDx=0;exitDy=0;entryX=0;entryY=0.5;entryDx=0;entryDy=0;curved=1;dashed=1;endArrow=classicThin;endFill=1;" edge="1" parent="1" source="7Bt0YS9L6A7gNUwBivGn-8" target="7Bt0YS9L6A7gNUwBivGn-15">
          <mxGeometry relative="1" as="geometry" />
        </mxCell>
        <mxCell id="7Bt0YS9L6A7gNUwBivGn-8" value="F1" style="ellipse;whiteSpace=wrap;html=1;fillColor=#d5e8d4;strokeColor=#82b366;" vertex="1" parent="1">
          <mxGeometry x="410" y="290" width="30" height="20" as="geometry" />
        </mxCell>
        <mxCell id="7Bt0YS9L6A7gNUwBivGn-9" style="edgeStyle=orthogonalEdgeStyle;rounded=0;orthogonalLoop=1;jettySize=auto;html=1;exitX=0;exitY=0;exitDx=0;exitDy=0;dashed=1;curved=1;endArrow=classicThin;endFill=1;entryX=1;entryY=1;entryDx=0;entryDy=0;" edge="1" parent="1" source="7Bt0YS9L6A7gNUwBivGn-10" target="7Bt0YS9L6A7gNUwBivGn-17">
          <mxGeometry relative="1" as="geometry">
            <mxPoint x="360" y="300" as="targetPoint" />
          </mxGeometry>
        </mxCell>
        <mxCell id="7Bt0YS9L6A7gNUwBivGn-10" value="F2" style="ellipse;whiteSpace=wrap;html=1;fillColor=#d5e8d4;strokeColor=#82b366;" vertex="1" parent="1">
          <mxGeometry x="420" y="370" width="30" height="20" as="geometry" />
        </mxCell>
        <mxCell id="7Bt0YS9L6A7gNUwBivGn-11" style="edgeStyle=orthogonalEdgeStyle;rounded=0;orthogonalLoop=1;jettySize=auto;html=1;exitX=0.5;exitY=0;exitDx=0;exitDy=0;entryX=0.5;entryY=1;entryDx=0;entryDy=0;dashed=1;curved=1;endArrow=classicThin;endFill=1;" edge="1" parent="1" source="7Bt0YS9L6A7gNUwBivGn-12" target="7Bt0YS9L6A7gNUwBivGn-17">
          <mxGeometry relative="1" as="geometry" />
        </mxCell>
        <mxCell id="7Bt0YS9L6A7gNUwBivGn-12" value="F3" style="ellipse;whiteSpace=wrap;html=1;fillColor=#d5e8d4;strokeColor=#82b366;" vertex="1" parent="1">
          <mxGeometry x="310" y="380" width="30" height="20" as="geometry" />
        </mxCell>
        <mxCell id="7Bt0YS9L6A7gNUwBivGn-13" style="edgeStyle=orthogonalEdgeStyle;rounded=0;orthogonalLoop=1;jettySize=auto;html=1;exitX=1;exitY=0.5;exitDx=0;exitDy=0;entryX=0;entryY=1;entryDx=0;entryDy=0;curved=1;dashed=1;endArrow=classicThin;endFill=1;" edge="1" parent="1" source="7Bt0YS9L6A7gNUwBivGn-14" target="7Bt0YS9L6A7gNUwBivGn-17">
          <mxGeometry relative="1" as="geometry" />
        </mxCell>
        <mxCell id="7Bt0YS9L6A7gNUwBivGn-14" value="F4" style="ellipse;whiteSpace=wrap;html=1;fillColor=#d5e8d4;strokeColor=#82b366;" vertex="1" parent="1">
          <mxGeometry x="300" y="300" width="30" height="20" as="geometry" />
        </mxCell>
        <mxCell id="7Bt0YS9L6A7gNUwBivGn-15" value="C1" style="ellipse;whiteSpace=wrap;html=1;fillColor=#ffe6cc;strokeColor=#d79b00;" vertex="1" parent="1">
          <mxGeometry x="430" y="330" width="30" height="20" as="geometry" />
        </mxCell>
        <mxCell id="7Bt0YS9L6A7gNUwBivGn-16" value="C2" style="ellipse;whiteSpace=wrap;html=1;fillColor=#f5f5f5;strokeColor=#666666;fontColor=#333333;" vertex="1" parent="1">
          <mxGeometry x="360" y="400" width="30" height="20" as="geometry" />
        </mxCell>
        <mxCell id="7Bt0YS9L6A7gNUwBivGn-17" value="C3" style="ellipse;whiteSpace=wrap;html=1;fillColor=#ffe6cc;strokeColor=#d79b00;" vertex="1" parent="1">
          <mxGeometry x="340" y="270" width="30" height="20" as="geometry" />
        </mxCell>
        <mxCell id="gnLTC_npADNgIFrUc21k-1" value="C2 宕机&lt;br&gt;摘除节点" style="text;html=1;strokeColor=none;fillColor=none;align=center;verticalAlign=middle;whiteSpace=wrap;rounded=0;" vertex="1" parent="1">
          <mxGeometry x="345" y="420" width="60" height="30" as="geometry" />
        </mxCell>
      </root>
    </mxGraphModel>
  </diagram>
  <diagram id="46P4LFMJdzFxSfOJRhQ7" name="第 5 页">
    <mxGraphModel dx="690" dy="669" grid="1" gridSize="10" guides="1" tooltips="1" connect="1" arrows="1" fold="1" page="1" pageScale="1" pageWidth="827" pageHeight="1169" math="0" shadow="0">
      <root>
        <mxCell id="0" />
        <mxCell id="1" parent="0" />
        <mxCell id="LZtvuwCvgc8B9TzXAMR_-1" style="edgeStyle=orthogonalEdgeStyle;rounded=0;orthogonalLoop=1;jettySize=auto;html=1;exitX=0.5;exitY=0;exitDx=0;exitDy=0;" edge="1" parent="1" source="LZtvuwCvgc8B9TzXAMR_-2">
          <mxGeometry relative="1" as="geometry">
            <mxPoint x="375" y="240" as="targetPoint" />
          </mxGeometry>
        </mxCell>
        <mxCell id="LZtvuwCvgc8B9TzXAMR_-2" value="" style="ellipse;whiteSpace=wrap;html=1;aspect=fixed;" vertex="1" parent="1">
          <mxGeometry x="310" y="280" width="130" height="130" as="geometry" />
        </mxCell>
        <mxCell id="LZtvuwCvgc8B9TzXAMR_-3" value="环形 Hash 空间" style="text;html=1;strokeColor=none;fillColor=none;align=center;verticalAlign=middle;whiteSpace=wrap;rounded=0;" vertex="1" parent="1">
          <mxGeometry x="330" y="330" width="90" height="30" as="geometry" />
        </mxCell>
        <mxCell id="LZtvuwCvgc8B9TzXAMR_-4" value="0" style="text;html=1;strokeColor=none;fillColor=none;align=center;verticalAlign=middle;whiteSpace=wrap;rounded=0;" vertex="1" parent="1">
          <mxGeometry x="345" y="210" width="60" height="30" as="geometry" />
        </mxCell>
        <mxCell id="LZtvuwCvgc8B9TzXAMR_-5" value="2^32 - 1" style="text;html=1;strokeColor=none;fillColor=none;align=center;verticalAlign=middle;whiteSpace=wrap;rounded=0;" vertex="1" parent="1">
          <mxGeometry x="390" y="220" width="60" height="30" as="geometry" />
        </mxCell>
        <mxCell id="LZtvuwCvgc8B9TzXAMR_-6" value="" style="endArrow=classic;html=1;rounded=0;exitX=0.692;exitY=0.038;exitDx=0;exitDy=0;exitPerimeter=0;" edge="1" parent="1" source="LZtvuwCvgc8B9TzXAMR_-2">
          <mxGeometry width="50" height="50" relative="1" as="geometry">
            <mxPoint x="330" y="370" as="sourcePoint" />
            <mxPoint x="420" y="250" as="targetPoint" />
          </mxGeometry>
        </mxCell>
        <mxCell id="LZtvuwCvgc8B9TzXAMR_-8" value="C1" style="ellipse;whiteSpace=wrap;html=1;fillColor=#ffe6cc;strokeColor=#d79b00;" vertex="1" parent="1">
          <mxGeometry x="410" y="290" width="30" height="20" as="geometry" />
        </mxCell>
        <mxCell id="LZtvuwCvgc8B9TzXAMR_-10" value="C3" style="ellipse;whiteSpace=wrap;html=1;fillColor=#ffe6cc;strokeColor=#d79b00;" vertex="1" parent="1">
          <mxGeometry x="420" y="370" width="30" height="20" as="geometry" />
        </mxCell>
        <mxCell id="LZtvuwCvgc8B9TzXAMR_-19" style="edgeStyle=orthogonalEdgeStyle;rounded=0;orthogonalLoop=1;jettySize=auto;html=1;exitX=0.5;exitY=0;exitDx=0;exitDy=0;entryX=0;entryY=1;entryDx=0;entryDy=0;curved=1;endArrow=classicThin;endFill=1;dashed=1;" edge="1" parent="1" source="LZtvuwCvgc8B9TzXAMR_-12" target="LZtvuwCvgc8B9TzXAMR_-8">
          <mxGeometry relative="1" as="geometry" />
        </mxCell>
        <mxCell id="LZtvuwCvgc8B9TzXAMR_-12" value="F2" style="ellipse;whiteSpace=wrap;html=1;fillColor=#d5e8d4;strokeColor=#82b366;" vertex="1" parent="1">
          <mxGeometry x="310" y="380" width="30" height="20" as="geometry" />
        </mxCell>
        <mxCell id="LZtvuwCvgc8B9TzXAMR_-20" style="edgeStyle=orthogonalEdgeStyle;rounded=0;orthogonalLoop=1;jettySize=auto;html=1;exitX=1;exitY=0.5;exitDx=0;exitDy=0;entryX=0;entryY=1;entryDx=0;entryDy=0;curved=1;dashed=1;endArrow=classicThin;endFill=1;" edge="1" parent="1" source="LZtvuwCvgc8B9TzXAMR_-14" target="LZtvuwCvgc8B9TzXAMR_-8">
          <mxGeometry relative="1" as="geometry" />
        </mxCell>
        <mxCell id="LZtvuwCvgc8B9TzXAMR_-14" value="F3" style="ellipse;whiteSpace=wrap;html=1;fillColor=#d5e8d4;strokeColor=#82b366;" vertex="1" parent="1">
          <mxGeometry x="300" y="300" width="30" height="20" as="geometry" />
        </mxCell>
        <mxCell id="LZtvuwCvgc8B9TzXAMR_-15" value="C2" style="ellipse;whiteSpace=wrap;html=1;fillColor=#ffe6cc;strokeColor=#d79b00;" vertex="1" parent="1">
          <mxGeometry x="430" y="330" width="30" height="20" as="geometry" />
        </mxCell>
        <mxCell id="LZtvuwCvgc8B9TzXAMR_-18" style="edgeStyle=orthogonalEdgeStyle;rounded=0;orthogonalLoop=1;jettySize=auto;html=1;exitX=0.5;exitY=0;exitDx=0;exitDy=0;entryX=0.5;entryY=1;entryDx=0;entryDy=0;curved=1;dashed=1;endArrow=classicThin;endFill=1;" edge="1" parent="1" source="LZtvuwCvgc8B9TzXAMR_-16" target="LZtvuwCvgc8B9TzXAMR_-8">
          <mxGeometry relative="1" as="geometry" />
        </mxCell>
        <mxCell id="LZtvuwCvgc8B9TzXAMR_-16" value="F1" style="ellipse;whiteSpace=wrap;html=1;fillColor=#d5e8d4;strokeColor=#82b366;" vertex="1" parent="1">
          <mxGeometry x="360" y="400" width="30" height="20" as="geometry" />
        </mxCell>
        <mxCell id="LZtvuwCvgc8B9TzXAMR_-21" style="edgeStyle=orthogonalEdgeStyle;rounded=0;orthogonalLoop=1;jettySize=auto;html=1;exitX=1;exitY=1;exitDx=0;exitDy=0;entryX=0;entryY=0.5;entryDx=0;entryDy=0;curved=1;endArrow=classicThin;endFill=1;dashed=1;" edge="1" parent="1" source="LZtvuwCvgc8B9TzXAMR_-17" target="LZtvuwCvgc8B9TzXAMR_-8">
          <mxGeometry relative="1" as="geometry" />
        </mxCell>
        <mxCell id="LZtvuwCvgc8B9TzXAMR_-17" value="F4" style="ellipse;whiteSpace=wrap;html=1;fillColor=#d5e8d4;strokeColor=#82b366;" vertex="1" parent="1">
          <mxGeometry x="340" y="270" width="30" height="20" as="geometry" />
        </mxCell>
      </root>
    </mxGraphModel>
  </diagram>
  <diagram id="ATMB6tJzHybDKsjN4Ho0" name="第 6 页">
    <mxGraphModel dx="690" dy="669" grid="1" gridSize="10" guides="1" tooltips="1" connect="1" arrows="1" fold="1" page="1" pageScale="1" pageWidth="827" pageHeight="1169" math="0" shadow="0">
      <root>
        <mxCell id="0" />
        <mxCell id="1" parent="0" />
        <mxCell id="1ZgghK_T12NUH7L1KVpU-1" style="edgeStyle=orthogonalEdgeStyle;rounded=0;orthogonalLoop=1;jettySize=auto;html=1;exitX=0.5;exitY=0;exitDx=0;exitDy=0;" edge="1" parent="1" source="1ZgghK_T12NUH7L1KVpU-2">
          <mxGeometry relative="1" as="geometry">
            <mxPoint x="375" y="240" as="targetPoint" />
          </mxGeometry>
        </mxCell>
        <mxCell id="1ZgghK_T12NUH7L1KVpU-2" value="" style="ellipse;whiteSpace=wrap;html=1;aspect=fixed;" vertex="1" parent="1">
          <mxGeometry x="310" y="280" width="130" height="130" as="geometry" />
        </mxCell>
        <mxCell id="1ZgghK_T12NUH7L1KVpU-3" value="环形 Hash 空间" style="text;html=1;strokeColor=none;fillColor=none;align=center;verticalAlign=middle;whiteSpace=wrap;rounded=0;" vertex="1" parent="1">
          <mxGeometry x="330" y="330" width="90" height="30" as="geometry" />
        </mxCell>
        <mxCell id="1ZgghK_T12NUH7L1KVpU-4" value="0" style="text;html=1;strokeColor=none;fillColor=none;align=center;verticalAlign=middle;whiteSpace=wrap;rounded=0;" vertex="1" parent="1">
          <mxGeometry x="345" y="210" width="60" height="30" as="geometry" />
        </mxCell>
        <mxCell id="1ZgghK_T12NUH7L1KVpU-5" value="2^32 - 1" style="text;html=1;strokeColor=none;fillColor=none;align=center;verticalAlign=middle;whiteSpace=wrap;rounded=0;" vertex="1" parent="1">
          <mxGeometry x="390" y="220" width="60" height="30" as="geometry" />
        </mxCell>
        <mxCell id="1ZgghK_T12NUH7L1KVpU-6" value="" style="endArrow=classic;html=1;rounded=0;exitX=0.692;exitY=0.038;exitDx=0;exitDy=0;exitPerimeter=0;" edge="1" parent="1" source="1ZgghK_T12NUH7L1KVpU-2">
          <mxGeometry width="50" height="50" relative="1" as="geometry">
            <mxPoint x="330" y="370" as="sourcePoint" />
            <mxPoint x="420" y="250" as="targetPoint" />
          </mxGeometry>
        </mxCell>
        <mxCell id="1ZgghK_T12NUH7L1KVpU-7" value="C1" style="ellipse;whiteSpace=wrap;html=1;fillColor=#ffe6cc;strokeColor=#d79b00;" vertex="1" parent="1">
          <mxGeometry x="410" y="290" width="30" height="20" as="geometry" />
        </mxCell>
        <mxCell id="1ZgghK_T12NUH7L1KVpU-8" value="C3" style="ellipse;whiteSpace=wrap;html=1;fillColor=#ffe6cc;strokeColor=#d79b00;" vertex="1" parent="1">
          <mxGeometry x="420" y="370" width="30" height="20" as="geometry" />
        </mxCell>
        <mxCell id="1ZgghK_T12NUH7L1KVpU-23" style="edgeStyle=orthogonalEdgeStyle;rounded=0;orthogonalLoop=1;jettySize=auto;html=1;exitX=1;exitY=0;exitDx=0;exitDy=0;entryX=1;entryY=0.5;entryDx=0;entryDy=0;curved=1;endArrow=classicThin;endFill=1;dashed=1;" edge="1" parent="1" source="1ZgghK_T12NUH7L1KVpU-10" target="1ZgghK_T12NUH7L1KVpU-22">
          <mxGeometry relative="1" as="geometry">
            <Array as="points">
              <mxPoint x="350" y="383" />
              <mxPoint x="350" y="360" />
            </Array>
          </mxGeometry>
        </mxCell>
        <mxCell id="1ZgghK_T12NUH7L1KVpU-10" value="F2" style="ellipse;whiteSpace=wrap;html=1;fillColor=#d5e8d4;strokeColor=#82b366;" vertex="1" parent="1">
          <mxGeometry x="310" y="380" width="30" height="20" as="geometry" />
        </mxCell>
        <mxCell id="1ZgghK_T12NUH7L1KVpU-25" style="edgeStyle=orthogonalEdgeStyle;rounded=0;orthogonalLoop=1;jettySize=auto;html=1;exitX=1;exitY=0.5;exitDx=0;exitDy=0;entryX=1;entryY=0.5;entryDx=0;entryDy=0;curved=1;dashed=1;endArrow=classicThin;endFill=1;" edge="1" parent="1" source="1ZgghK_T12NUH7L1KVpU-12" target="1ZgghK_T12NUH7L1KVpU-24">
          <mxGeometry relative="1" as="geometry" />
        </mxCell>
        <mxCell id="1ZgghK_T12NUH7L1KVpU-12" value="F3" style="ellipse;whiteSpace=wrap;html=1;fillColor=#d5e8d4;strokeColor=#82b366;" vertex="1" parent="1">
          <mxGeometry x="300" y="320" width="30" height="20" as="geometry" />
        </mxCell>
        <mxCell id="1ZgghK_T12NUH7L1KVpU-13" value="C2" style="ellipse;whiteSpace=wrap;html=1;fillColor=#ffe6cc;strokeColor=#d79b00;" vertex="1" parent="1">
          <mxGeometry x="430" y="330" width="30" height="20" as="geometry" />
        </mxCell>
        <mxCell id="1ZgghK_T12NUH7L1KVpU-21" style="edgeStyle=orthogonalEdgeStyle;rounded=0;orthogonalLoop=1;jettySize=auto;html=1;exitX=0.5;exitY=0;exitDx=0;exitDy=0;entryX=0.5;entryY=0;entryDx=0;entryDy=0;curved=1;dashed=1;endArrow=classicThin;endFill=1;" edge="1" parent="1" source="1ZgghK_T12NUH7L1KVpU-15" target="1ZgghK_T12NUH7L1KVpU-18">
          <mxGeometry relative="1" as="geometry">
            <Array as="points">
              <mxPoint x="390" y="380" />
              <mxPoint x="355" y="380" />
            </Array>
          </mxGeometry>
        </mxCell>
        <mxCell id="1ZgghK_T12NUH7L1KVpU-15" value="F1" style="ellipse;whiteSpace=wrap;html=1;fillColor=#d5e8d4;strokeColor=#82b366;" vertex="1" parent="1">
          <mxGeometry x="375" y="400" width="30" height="20" as="geometry" />
        </mxCell>
        <mxCell id="1ZgghK_T12NUH7L1KVpU-33" style="edgeStyle=orthogonalEdgeStyle;rounded=0;orthogonalLoop=1;jettySize=auto;html=1;exitX=0.5;exitY=1;exitDx=0;exitDy=0;entryX=0;entryY=0.5;entryDx=0;entryDy=0;dashed=1;endArrow=classicThin;endFill=1;curved=1;" edge="1" parent="1" source="1ZgghK_T12NUH7L1KVpU-17" target="1ZgghK_T12NUH7L1KVpU-7">
          <mxGeometry relative="1" as="geometry">
            <Array as="points">
              <mxPoint x="355" y="300" />
            </Array>
          </mxGeometry>
        </mxCell>
        <mxCell id="1ZgghK_T12NUH7L1KVpU-17" value="F4" style="ellipse;whiteSpace=wrap;html=1;fillColor=#d5e8d4;strokeColor=#82b366;" vertex="1" parent="1">
          <mxGeometry x="340" y="270" width="30" height="20" as="geometry" />
        </mxCell>
        <mxCell id="1ZgghK_T12NUH7L1KVpU-18" value="V1" style="ellipse;whiteSpace=wrap;html=1;fillColor=#dae8fc;strokeColor=#6c8ebf;" vertex="1" parent="1">
          <mxGeometry x="340" y="400" width="30" height="20" as="geometry" />
        </mxCell>
        <mxCell id="1ZgghK_T12NUH7L1KVpU-22" value="V2" style="ellipse;whiteSpace=wrap;html=1;fillColor=#dae8fc;strokeColor=#6c8ebf;" vertex="1" parent="1">
          <mxGeometry x="300" y="350" width="30" height="20" as="geometry" />
        </mxCell>
        <mxCell id="1ZgghK_T12NUH7L1KVpU-24" value="V3" style="ellipse;whiteSpace=wrap;html=1;fillColor=#dae8fc;strokeColor=#6c8ebf;" vertex="1" parent="1">
          <mxGeometry x="310" y="290" width="30" height="20" as="geometry" />
        </mxCell>
        <mxCell id="1ZgghK_T12NUH7L1KVpU-28" style="rounded=0;orthogonalLoop=1;jettySize=auto;html=1;exitX=0.5;exitY=0;exitDx=0;exitDy=0;entryX=0.5;entryY=1;entryDx=0;entryDy=0;dashed=1;endArrow=none;endFill=0;" edge="1" parent="1" source="1ZgghK_T12NUH7L1KVpU-27" target="1ZgghK_T12NUH7L1KVpU-18">
          <mxGeometry relative="1" as="geometry" />
        </mxCell>
        <mxCell id="1ZgghK_T12NUH7L1KVpU-27" value="C1" style="ellipse;whiteSpace=wrap;html=1;fillColor=#ffe6cc;strokeColor=#d79b00;" vertex="1" parent="1">
          <mxGeometry x="320" y="430" width="30" height="20" as="geometry" />
        </mxCell>
        <mxCell id="1ZgghK_T12NUH7L1KVpU-31" style="edgeStyle=orthogonalEdgeStyle;rounded=0;orthogonalLoop=1;jettySize=auto;html=1;exitX=1;exitY=0.5;exitDx=0;exitDy=0;entryX=0;entryY=0.5;entryDx=0;entryDy=0;dashed=1;endArrow=none;endFill=0;" edge="1" parent="1" source="1ZgghK_T12NUH7L1KVpU-29" target="1ZgghK_T12NUH7L1KVpU-22">
          <mxGeometry relative="1" as="geometry" />
        </mxCell>
        <mxCell id="1ZgghK_T12NUH7L1KVpU-29" value="C2" style="ellipse;whiteSpace=wrap;html=1;fillColor=#ffe6cc;strokeColor=#d79b00;" vertex="1" parent="1">
          <mxGeometry x="260" y="350" width="30" height="20" as="geometry" />
        </mxCell>
        <mxCell id="1ZgghK_T12NUH7L1KVpU-32" style="rounded=0;orthogonalLoop=1;jettySize=auto;html=1;exitX=1;exitY=0.5;exitDx=0;exitDy=0;entryX=0;entryY=0;entryDx=0;entryDy=0;dashed=1;endArrow=none;endFill=0;" edge="1" parent="1" source="1ZgghK_T12NUH7L1KVpU-30" target="1ZgghK_T12NUH7L1KVpU-24">
          <mxGeometry relative="1" as="geometry" />
        </mxCell>
        <mxCell id="1ZgghK_T12NUH7L1KVpU-30" value="C3" style="ellipse;whiteSpace=wrap;html=1;fillColor=#ffe6cc;strokeColor=#d79b00;" vertex="1" parent="1">
          <mxGeometry x="270" y="280" width="30" height="20" as="geometry" />
        </mxCell>
      </root>
    </mxGraphModel>
  </diagram>
  <diagram id="1mTB04EPbKSbylLqbmJy" name="第 7 页">
    <mxGraphModel dx="690" dy="669" grid="1" gridSize="10" guides="1" tooltips="1" connect="1" arrows="1" fold="1" page="1" pageScale="1" pageWidth="827" pageHeight="1169" math="0" shadow="0">
      <root>
        <mxCell id="0" />
        <mxCell id="1" parent="0" />
        <mxCell id="dwNAJBRzh35JiRSx5VA--1" style="edgeStyle=orthogonalEdgeStyle;rounded=0;orthogonalLoop=1;jettySize=auto;html=1;exitX=0.5;exitY=0;exitDx=0;exitDy=0;" edge="1" parent="1" source="dwNAJBRzh35JiRSx5VA--2">
          <mxGeometry relative="1" as="geometry">
            <mxPoint x="375" y="240" as="targetPoint" />
          </mxGeometry>
        </mxCell>
        <mxCell id="dwNAJBRzh35JiRSx5VA--2" value="" style="ellipse;whiteSpace=wrap;html=1;aspect=fixed;" vertex="1" parent="1">
          <mxGeometry x="310" y="280" width="130" height="130" as="geometry" />
        </mxCell>
        <mxCell id="dwNAJBRzh35JiRSx5VA--3" value="环形 Hash 空间" style="text;html=1;strokeColor=none;fillColor=none;align=center;verticalAlign=middle;whiteSpace=wrap;rounded=0;" vertex="1" parent="1">
          <mxGeometry x="330" y="330" width="90" height="30" as="geometry" />
        </mxCell>
        <mxCell id="dwNAJBRzh35JiRSx5VA--4" value="0" style="text;html=1;strokeColor=none;fillColor=none;align=center;verticalAlign=middle;whiteSpace=wrap;rounded=0;" vertex="1" parent="1">
          <mxGeometry x="345" y="210" width="60" height="30" as="geometry" />
        </mxCell>
        <mxCell id="dwNAJBRzh35JiRSx5VA--5" value="2^32 - 1" style="text;html=1;strokeColor=none;fillColor=none;align=center;verticalAlign=middle;whiteSpace=wrap;rounded=0;" vertex="1" parent="1">
          <mxGeometry x="390" y="220" width="60" height="30" as="geometry" />
        </mxCell>
        <mxCell id="dwNAJBRzh35JiRSx5VA--6" value="" style="endArrow=classic;html=1;rounded=0;exitX=0.692;exitY=0.038;exitDx=0;exitDy=0;exitPerimeter=0;" edge="1" parent="1" source="dwNAJBRzh35JiRSx5VA--2">
          <mxGeometry width="50" height="50" relative="1" as="geometry">
            <mxPoint x="330" y="370" as="sourcePoint" />
            <mxPoint x="420" y="250" as="targetPoint" />
          </mxGeometry>
        </mxCell>
        <mxCell id="dwNAJBRzh35JiRSx5VA--7" value="C1" style="ellipse;whiteSpace=wrap;html=1;fillColor=#ffe6cc;strokeColor=#d79b00;" vertex="1" parent="1">
          <mxGeometry x="410" y="290" width="30" height="20" as="geometry" />
        </mxCell>
        <mxCell id="dwNAJBRzh35JiRSx5VA--8" value="C3" style="ellipse;whiteSpace=wrap;html=1;fillColor=#f5f5f5;strokeColor=#666666;fontColor=#333333;" vertex="1" parent="1">
          <mxGeometry x="420" y="370" width="30" height="20" as="geometry" />
        </mxCell>
        <mxCell id="dwNAJBRzh35JiRSx5VA--9" style="edgeStyle=orthogonalEdgeStyle;rounded=0;orthogonalLoop=1;jettySize=auto;html=1;exitX=1;exitY=0;exitDx=0;exitDy=0;entryX=1;entryY=0.5;entryDx=0;entryDy=0;curved=1;endArrow=classicThin;endFill=1;dashed=1;" edge="1" parent="1" source="dwNAJBRzh35JiRSx5VA--10" target="dwNAJBRzh35JiRSx5VA--19">
          <mxGeometry relative="1" as="geometry">
            <Array as="points">
              <mxPoint x="350" y="383" />
              <mxPoint x="350" y="360" />
            </Array>
          </mxGeometry>
        </mxCell>
        <mxCell id="dwNAJBRzh35JiRSx5VA--10" value="F2" style="ellipse;whiteSpace=wrap;html=1;fillColor=#d5e8d4;strokeColor=#82b366;" vertex="1" parent="1">
          <mxGeometry x="310" y="380" width="30" height="20" as="geometry" />
        </mxCell>
        <mxCell id="dwNAJBRzh35JiRSx5VA--11" style="edgeStyle=orthogonalEdgeStyle;rounded=0;orthogonalLoop=1;jettySize=auto;html=1;exitX=1;exitY=0.5;exitDx=0;exitDy=0;entryX=0;entryY=1;entryDx=0;entryDy=0;curved=1;dashed=1;endArrow=classicThin;endFill=1;" edge="1" parent="1" source="dwNAJBRzh35JiRSx5VA--12" target="dwNAJBRzh35JiRSx5VA--7">
          <mxGeometry relative="1" as="geometry" />
        </mxCell>
        <mxCell id="dwNAJBRzh35JiRSx5VA--12" value="F3" style="ellipse;whiteSpace=wrap;html=1;fillColor=#d5e8d4;strokeColor=#82b366;" vertex="1" parent="1">
          <mxGeometry x="300" y="320" width="30" height="20" as="geometry" />
        </mxCell>
        <mxCell id="dwNAJBRzh35JiRSx5VA--13" value="C2" style="ellipse;whiteSpace=wrap;html=1;fillColor=#ffe6cc;strokeColor=#d79b00;" vertex="1" parent="1">
          <mxGeometry x="430" y="330" width="30" height="20" as="geometry" />
        </mxCell>
        <mxCell id="dwNAJBRzh35JiRSx5VA--14" style="edgeStyle=orthogonalEdgeStyle;rounded=0;orthogonalLoop=1;jettySize=auto;html=1;exitX=0.5;exitY=0;exitDx=0;exitDy=0;entryX=0.5;entryY=0;entryDx=0;entryDy=0;curved=1;dashed=1;endArrow=classicThin;endFill=1;" edge="1" parent="1" source="dwNAJBRzh35JiRSx5VA--15" target="dwNAJBRzh35JiRSx5VA--18">
          <mxGeometry relative="1" as="geometry">
            <Array as="points">
              <mxPoint x="390" y="380" />
              <mxPoint x="355" y="380" />
            </Array>
          </mxGeometry>
        </mxCell>
        <mxCell id="dwNAJBRzh35JiRSx5VA--15" value="F1" style="ellipse;whiteSpace=wrap;html=1;fillColor=#d5e8d4;strokeColor=#82b366;" vertex="1" parent="1">
          <mxGeometry x="375" y="400" width="30" height="20" as="geometry" />
        </mxCell>
        <mxCell id="dwNAJBRzh35JiRSx5VA--16" style="edgeStyle=orthogonalEdgeStyle;rounded=0;orthogonalLoop=1;jettySize=auto;html=1;exitX=0.5;exitY=1;exitDx=0;exitDy=0;entryX=0;entryY=0.5;entryDx=0;entryDy=0;dashed=1;endArrow=classicThin;endFill=1;curved=1;" edge="1" parent="1" source="dwNAJBRzh35JiRSx5VA--17" target="dwNAJBRzh35JiRSx5VA--7">
          <mxGeometry relative="1" as="geometry">
            <Array as="points">
              <mxPoint x="355" y="300" />
            </Array>
          </mxGeometry>
        </mxCell>
        <mxCell id="dwNAJBRzh35JiRSx5VA--17" value="F4" style="ellipse;whiteSpace=wrap;html=1;fillColor=#d5e8d4;strokeColor=#82b366;" vertex="1" parent="1">
          <mxGeometry x="340" y="270" width="30" height="20" as="geometry" />
        </mxCell>
        <mxCell id="dwNAJBRzh35JiRSx5VA--18" value="V1" style="ellipse;whiteSpace=wrap;html=1;fillColor=#dae8fc;strokeColor=#6c8ebf;" vertex="1" parent="1">
          <mxGeometry x="340" y="400" width="30" height="20" as="geometry" />
        </mxCell>
        <mxCell id="dwNAJBRzh35JiRSx5VA--19" value="V2" style="ellipse;whiteSpace=wrap;html=1;fillColor=#dae8fc;strokeColor=#6c8ebf;" vertex="1" parent="1">
          <mxGeometry x="300" y="350" width="30" height="20" as="geometry" />
        </mxCell>
        <mxCell id="dwNAJBRzh35JiRSx5VA--20" value="V3" style="ellipse;whiteSpace=wrap;html=1;fillColor=#f5f5f5;strokeColor=#666666;fontColor=#333333;" vertex="1" parent="1">
          <mxGeometry x="310" y="290" width="30" height="20" as="geometry" />
        </mxCell>
        <mxCell id="dwNAJBRzh35JiRSx5VA--21" style="rounded=0;orthogonalLoop=1;jettySize=auto;html=1;exitX=0.5;exitY=0;exitDx=0;exitDy=0;entryX=0.5;entryY=1;entryDx=0;entryDy=0;dashed=1;endArrow=none;endFill=0;" edge="1" parent="1" source="dwNAJBRzh35JiRSx5VA--22" target="dwNAJBRzh35JiRSx5VA--18">
          <mxGeometry relative="1" as="geometry" />
        </mxCell>
        <mxCell id="dwNAJBRzh35JiRSx5VA--22" value="C1" style="ellipse;whiteSpace=wrap;html=1;fillColor=#ffe6cc;strokeColor=#d79b00;" vertex="1" parent="1">
          <mxGeometry x="320" y="430" width="30" height="20" as="geometry" />
        </mxCell>
        <mxCell id="dwNAJBRzh35JiRSx5VA--23" style="edgeStyle=orthogonalEdgeStyle;rounded=0;orthogonalLoop=1;jettySize=auto;html=1;exitX=1;exitY=0.5;exitDx=0;exitDy=0;entryX=0;entryY=0.5;entryDx=0;entryDy=0;dashed=1;endArrow=none;endFill=0;" edge="1" parent="1" source="dwNAJBRzh35JiRSx5VA--24" target="dwNAJBRzh35JiRSx5VA--19">
          <mxGeometry relative="1" as="geometry" />
        </mxCell>
        <mxCell id="dwNAJBRzh35JiRSx5VA--24" value="C2" style="ellipse;whiteSpace=wrap;html=1;fillColor=#ffe6cc;strokeColor=#d79b00;" vertex="1" parent="1">
          <mxGeometry x="260" y="350" width="30" height="20" as="geometry" />
        </mxCell>
        <mxCell id="dwNAJBRzh35JiRSx5VA--25" style="rounded=0;orthogonalLoop=1;jettySize=auto;html=1;exitX=1;exitY=0.5;exitDx=0;exitDy=0;entryX=0;entryY=0;entryDx=0;entryDy=0;dashed=1;endArrow=none;endFill=0;" edge="1" parent="1" source="dwNAJBRzh35JiRSx5VA--26" target="dwNAJBRzh35JiRSx5VA--20">
          <mxGeometry relative="1" as="geometry" />
        </mxCell>
        <mxCell id="dwNAJBRzh35JiRSx5VA--26" value="C3" style="ellipse;whiteSpace=wrap;html=1;fillColor=#ffe6cc;strokeColor=#d79b00;" vertex="1" parent="1">
          <mxGeometry x="270" y="280" width="30" height="20" as="geometry" />
        </mxCell>
        <mxCell id="5maiUCJEF5cvlIZiaUUT-1" value="C3 宕机&lt;br&gt;摘除节点" style="text;html=1;strokeColor=none;fillColor=none;align=center;verticalAlign=middle;whiteSpace=wrap;rounded=0;" vertex="1" parent="1">
          <mxGeometry x="450" y="370" width="60" height="30" as="geometry" />
        </mxCell>
      </root>
    </mxGraphModel>
  </diagram>
</mxfile>
